<?xml version="1.0" standalone="no"?>
<!DOCTYPE svg PUBLIC "-//W3C//DTD SVG 1.1//EN" "http://www.w3.org/Graphics/SVG/1.1/DTD/svg11.dtd" >
<svg xmlns="http://www.w3.org/2000/svg" xmlns:xlink="http://www.w3.org/1999/xlink" version="1.1">
<metadata></metadata>
<defs>
<font id="fivo_sanslight" horiz-adv-x="1409" >
<font-face units-per-em="2048" ascent="1638" descent="-410" />
<missing-glyph horiz-adv-x="614" />
<glyph horiz-adv-x="0" />
<glyph horiz-adv-x="682" />
<glyph horiz-adv-x="1613" d="M205 0v1434h1204v-1434h-1204zM307 102h998v1229h-998v-1229z" />
<glyph horiz-adv-x="1613" d="M205 0v1434h1204v-1434h-1204zM307 102h998v1229h-998v-1229z" />
<glyph unicode="&#xd;" horiz-adv-x="512" />
<glyph unicode=" "  horiz-adv-x="614" />
<glyph unicode="&#x09;" horiz-adv-x="614" />
<glyph unicode="&#xa0;" horiz-adv-x="614" />
<glyph unicode="!" horiz-adv-x="507" d="M164 72q0 48 21.5 70t68.5 22t68.5 -22t21.5 -70t-21.5 -70t-68.5 -22t-68.5 22t-21.5 70zM199 1044v390h110v-390l-16 -542h-78z" />
<glyph unicode="&#x22;" horiz-adv-x="559" d="M102 1147v287h101v-287l-10 -301h-82zM356 1147v287h101v-287l-8 -301h-82z" />
<glyph unicode="#" horiz-adv-x="1617" d="M143 442v88h379l49 342h-366v89h379l67 473h86l-67 -473h348l67 473h86l-67 -473h371v-89h-383l-50 -342h371v-88h-383l-63 -442h-86l63 442h-348l-64 -442h-86l64 442h-367zM608 530h348l50 342h-349z" />
<glyph unicode="$" horiz-adv-x="1318" d="M143 410h107q0 -192 95 -275.5t314 -83.5q218 0 312 74.5t94 243.5q0 71 -31 123t-83 83.5t-119.5 53.5t-142.5 38.5t-149.5 34t-142 44t-119.5 63.5t-83 98.5t-31 143.5q0 216 108 320t342 104v163h91v-163q230 0 340 -112t110 -339h-106q0 190 -91.5 274t-298.5 84 q-206 0 -295.5 -73.5t-89.5 -243.5q0 -66 31 -114.5t83 -77.5t119.5 -50t142.5 -37t150 -34t142.5 -46.5t119.5 -67.5t83 -104t31 -151q0 -216 -113 -320t-358 -104v-164h-91v166q-245 0 -358 110.5t-113 338.5z" />
<glyph unicode="%" horiz-adv-x="1703" d="M102 1061q0 207 76 300t244 93q167 0 243 -93t76 -300t-76 -301t-243 -94t-243.5 94t-76.5 301zM188 1061q0 -169 54.5 -242.5t179.5 -73.5q124 0 178.5 73.5t54.5 242.5q0 168 -54.5 241.5t-178.5 73.5q-125 0 -179.5 -73.5t-54.5 -241.5zM348 -61l901 1556h105 l-901 -1556h-105zM963 406q0 207 76 300t243 93q169 0 244.5 -93t75.5 -300t-76 -301.5t-244 -94.5q-167 0 -243 94.5t-76 301.5zM1051 406q0 -169 53.5 -242.5t177.5 -73.5q125 0 179.5 73.5t54.5 242.5q0 167 -54.5 241t-177.5 74q-126 0 -179.5 -73t-53.5 -242z" />
<glyph unicode="&#x26;" horiz-adv-x="1564" d="M141 348q0 63 22 121t55.5 102t86 88t102 75t115.5 67q-85 89 -138.5 176.5t-53.5 187.5q0 132 98 221t270 89q177 0 265 -81.5t88 -222.5q0 -37 -11.5 -72t-28.5 -63.5t-48 -58.5t-58 -51.5t-71 -48.5t-75 -44.5t-81 -44.5l442 -423q105 169 121 346h90 q-20 -219 -141 -412l313 -299h-143l-230 217q-209 -258 -532 -258q-213 0 -335 108.5t-122 280.5zM256 360q0 -140 104.5 -223.5t249.5 -83.5q130 0 249.5 62.5t205.5 167.5l-475 456q-76 -41 -128 -76t-103 -82t-77 -102.5t-26 -118.5zM426 1176q0 -143 190 -324 q70 36 106.5 56.5t89.5 55.5t79.5 62.5t46.5 65t20 77.5q0 112 -69 169t-182 57q-119 0 -200 -58.5t-81 -160.5z" />
<glyph unicode="'" horiz-adv-x="305" d="M102 1147v287h101v-287l-10 -301h-82z" />
<glyph unicode="(" horiz-adv-x="561" d="M143 532q0 177 37 344t77.5 259t91.5 188.5t57 110.5h94q-8 -19 -42.5 -81.5t-68.5 -135.5t-70 -173t-58.5 -234t-22.5 -278t22.5 -281.5t59 -244.5t69.5 -184.5t68.5 -146.5t42.5 -85h-94q-7 16 -42.5 85t-69 146.5t-70 184t-59 244.5t-22.5 282z" />
<glyph unicode=")" horiz-adv-x="561" d="M61 -410q7 16 42.5 85t69 146.5t70 184t59 244.5t22.5 282q0 177 -37 344t-77.5 259t-91.5 188.5t-57 110.5h95q8 -19 42.5 -81.5t68.5 -135.5t70 -173t58.5 -234t22.5 -278t-22.5 -281.5t-59 -244.5t-69.5 -184.5t-68.5 -146.5t-42.5 -85h-95z" />
<glyph unicode="*" horiz-adv-x="770" d="M102 1001l107 62l74 37l45 24l-45 27l-74 37l-107 61l33 60l107 -62l69 -45l45 -26v51l-4 82v125h66v-125l-4 -82v-51l47 26l67 45l107 62l33 -60l-107 -61l-72 -37l-45 -27l43 -24l74 -37l107 -62l-33 -59l-107 62l-69 45l-45 26v-53l4 -82v-121h-66v121l4 82v53 l-45 -26l-69 -45l-107 -62z" />
<glyph unicode="+" horiz-adv-x="1269" d="M102 483v92h488v449h90v-449h487v-92h-487v-483h-90v483h-488z" />
<glyph unicode="," horiz-adv-x="385" d="M102 70q0 94 86 94q50 0 72.5 -40t22.5 -128q0 -124 -39 -183t-121 -59v66q41 0 59.5 37.5t18.5 122.5q-53 0 -76 20.5t-23 69.5z" />
<glyph unicode="-" horiz-adv-x="880" d="M102 504v92h676v-92h-676z" />
<glyph unicode="." horiz-adv-x="385" d="M102 72q0 47 22 69.5t69 22.5t68.5 -22t21.5 -70t-21.5 -70t-68.5 -22t-69 22.5t-22 69.5z" />
<glyph unicode="/" horiz-adv-x="714" d="M61 0l490 1434l102 -2l-491 -1434z" />
<glyph unicode="0" d="M143 717q0 398 133.5 578t428.5 180t428 -180t133 -578t-133 -578t-428 -180t-428.5 180t-133.5 578zM254 717q0 -352 106.5 -509t344.5 -157t344 157t106 509t-106 508.5t-344 156.5t-344.5 -157t-106.5 -508z" />
<glyph unicode="1" horiz-adv-x="679" d="M123 1341v93h352v-1434h-106v1341h-246z" />
<glyph unicode="2" horiz-adv-x="1232" d="M123 0v68q89 77 212.5 175t208 163.5t178 149.5t149.5 153.5t93 154t37 170.5q0 187 -86.5 267.5t-287.5 80.5q-200 0 -288.5 -98.5t-88.5 -320.5h-107q0 268 115 390t369 122t368.5 -104.5t114.5 -336.5q0 -69 -20.5 -136.5t-54.5 -125.5t-87 -120.5t-107 -113 t-127.5 -111.5t-135.5 -109t-143 -112t-140 -114h795v-92h-967z" />
<glyph unicode="3" horiz-adv-x="1323" d="M123 471h102q0 -223 100 -321.5t326 -98.5q225 0 322.5 77.5t97.5 254.5q0 171 -104.5 248.5t-335.5 77.5h-51v88h53q204 0 296.5 69t92.5 221q0 158 -85.5 226.5t-283.5 68.5t-283 -92t-85 -307h-99q0 258 110.5 375t356.5 117t356.5 -91t110.5 -292q0 -86 -26 -150.5 t-60.5 -98t-81.5 -54t-77 -25.5t-58 -6q32 -1 67 -6.5t91.5 -28.5t99 -60.5t74 -110t31.5 -169.5q0 -223 -125.5 -323.5t-403.5 -100.5t-403 121.5t-125 390.5z" />
<glyph unicode="4" horiz-adv-x="1290" d="M102 422v119l770 893h132v-920h143v-92h-143v-422h-107v422h-795zM199 514h698v815z" />
<glyph unicode="5" horiz-adv-x="1302" d="M143 410h99q17 -191 112 -275t293 -84q215 0 310.5 98.5t95.5 321.5t-91.5 321.5t-297.5 98.5q-170 0 -254 -60.5t-115 -205.5h-94l131 809h725v-93h-643l-78 -471q107 113 344 113q252 0 365.5 -121.5t113.5 -390.5q0 -268 -123 -390t-393 -122q-246 0 -364.5 107 t-135.5 344z" />
<glyph unicode="6" horiz-adv-x="1323" d="M143 696q0 409 125.5 594t403.5 185q202 0 313 -97.5t154 -312.5h-103q-40 173 -123.5 247t-240.5 74q-229 0 -325.5 -165.5t-96.5 -550.5q0 7 1 18t9.5 43.5t23 62t47 65.5t76 62t114.5 44t159 18q262 0 381 -121.5t119 -390.5t-120.5 -390.5t-387.5 -121.5 q-126 0 -217 29t-151.5 84t-96 147t-50 205.5t-14.5 271.5zM270 471q0 -220 95.5 -320t306.5 -100q214 0 306.5 98t92.5 322q0 223 -93.5 321.5t-305.5 98.5q-211 0 -306.5 -99.5t-95.5 -320.5z" />
<glyph unicode="7" horiz-adv-x="1142" d="M123 1341v93h897v-68l-614 -1366h-115l608 1341h-776z" />
<glyph unicode="8" horiz-adv-x="1384" d="M143 381q0 156 67.5 248.5t211.5 130.5q-112 38 -165.5 119.5t-53.5 212.5q0 201 115.5 292t371.5 91t372 -91t116 -292q0 -132 -52 -213t-163 -119q144 -38 211 -130.5t67 -248.5q0 -221 -130 -320.5t-419 -99.5t-419 99.5t-130 320.5zM252 381q0 -177 103 -253.5 t339 -76.5q234 0 337.5 77.5t103.5 252.5q0 177 -102 252.5t-339 75.5q-235 0 -338.5 -76.5t-103.5 -251.5zM305 1090q0 -157 89.5 -225t295.5 -68t295.5 68t89.5 225t-89.5 224.5t-295.5 67.5q-205 0 -295 -68.5t-90 -223.5z" />
<glyph unicode="9" horiz-adv-x="1323" d="M143 963q0 269 120.5 390.5t387.5 121.5q126 0 217 -29t151.5 -84.5t96 -147t50 -205.5t14.5 -272q0 -409 -125.5 -593.5t-403.5 -184.5q-202 0 -313 97.5t-154 312.5h103q40 -173 123.5 -247.5t240.5 -74.5q229 0 325.5 166t96.5 551q0 -7 -1 -18t-9.5 -43.5t-23 -62 t-47 -65.5t-76 -62t-114.5 -44t-159 -18q-262 0 -381 121.5t-119 390.5zM250 963q0 -223 94.5 -321.5t306.5 -98.5q211 0 305.5 99.5t94.5 320.5q0 220 -94.5 319.5t-305.5 99.5q-214 0 -307.5 -97.5t-93.5 -321.5z" />
<glyph unicode=":" horiz-adv-x="387" d="M102 72q0 47 22 69.5t69 22.5q92 0 92 -92t-92 -92q-91 0 -91 92zM102 948q0 47 22 69.5t69 22.5q92 0 92 -92t-92 -92q-91 0 -91 92z" />
<glyph unicode=";" horiz-adv-x="387" d="M102 72q0 94 86 94q50 0 72.5 -40t22.5 -128q0 -124 -39 -183t-121 -59v66q41 0 59.5 37.5t18.5 122.5q-53 0 -76 20.5t-23 69.5zM102 948q0 47 22 69.5t69 22.5q92 0 92 -92t-92 -92q-91 0 -91 92z" />
<glyph unicode="&#x3c;" horiz-adv-x="1024" d="M102 449v126l820 449v-111l-729 -401l729 -401v-111z" />
<glyph unicode="=" horiz-adv-x="1302" d="M102 315v93h1098v-93h-1098zM102 678v92h1098v-92h-1098z" />
<glyph unicode="&#x3e;" horiz-adv-x="1024" d="M102 0v111l729 401l-729 401v111l820 -449v-126z" />
<glyph unicode="?" horiz-adv-x="1040" d="M102 1004q0 248 99 359.5t319 111.5q219 0 318.5 -93t99.5 -297q0 -75 -21.5 -132.5t-56.5 -93.5t-76.5 -66.5t-83.5 -60.5t-77 -64.5t-56.5 -89t-21.5 -125.5h-94q0 81 20.5 144t54 103t73.5 72.5t80 62t73.5 61.5t54 79.5t20.5 109.5q0 155 -74 226t-237 71t-237 -90 t-74 -288h-103zM424 72q0 48 21.5 70t68.5 22t68.5 -22t21.5 -70t-21.5 -70t-68.5 -22t-68.5 22t-21.5 70z" />
<glyph unicode="@" horiz-adv-x="1701" d="M143 504q0 419 170.5 607.5t542.5 188.5q373 0 538 -188t165 -608q0 -244 -54.5 -355.5t-173.5 -111.5q-77 0 -123 46.5t-65 145.5q-77 -151 -305 -151q-193 0 -281 103.5t-88 334.5t87 338t275 107q222 0 306 -154l12 135h74l-2 -2l-2 -2v-553q0 -141 27 -205.5 t87 -64.5q71 0 103 94t32 299q0 378 -142 543.5t-470 165.5q-330 0 -478.5 -167t-148.5 -542q0 -361 137 -524.5t441 -163.5q183 0 328 96v-94q-140 -86 -328 -86q-348 0 -506 183t-158 585zM555 514q0 -190 66.5 -272.5t218.5 -83.5h-2h4h-2q153 1 219.5 84.5t66.5 275.5 t-65.5 276.5t-216.5 84.5q-152 0 -220.5 -86t-68.5 -279z" />
<glyph unicode="A" d="M102 0l529 1434h155l521 -1434h-121l-137 377h-691l-139 -377h-117zM391 469h623l-309 850z" />
<glyph unicode="B" horiz-adv-x="1380" d="M205 0v1434h536q229 0 332 -85t103 -274q0 -62 -14.5 -113t-37.5 -83t-50.5 -56t-55.5 -36t-51 -19t-37 -8l-15 -2q7 0 18.5 -1t45 -8t64 -19.5t67.5 -40t63.5 -63.5t45 -95t18.5 -132q0 -210 -117 -304.5t-375 -94.5h-540zM322 92h411q206 0 295.5 71.5t89.5 235.5 q0 163 -92 236.5t-293 73.5h-411v-617zM322 797h407q172 0 250 65t78 209q0 145 -76.5 207.5t-251.5 62.5h-407v-544z" />
<glyph unicode="C" horiz-adv-x="1544" d="M143 717q0 397 154 577.5t489 180.5q273 0 417 -118.5t198 -383.5h-115q-54 217 -168 308t-332 91q-275 0 -398.5 -154t-123.5 -501q0 -348 123 -502t399 -154q197 0 311 91t189 309h115q-80 -265 -225 -383.5t-390 -118.5q-335 0 -489 180.5t-154 577.5z" />
<glyph unicode="D" horiz-adv-x="1449" d="M205 0v1434h463q336 0 487.5 -170t151.5 -547t-151.5 -547t-487.5 -170h-463zM322 96h342q278 0 401 146t123 475q0 328 -123.5 474t-400.5 146h-342v-1241z" />
<glyph unicode="E" horiz-adv-x="1261" d="M205 0v1434h934v-97h-817v-536h735v-96h-735v-609h817v-96h-934z" />
<glyph unicode="F" horiz-adv-x="1241" d="M205 0v1434h934v-97h-817v-536h735v-96h-735v-705h-117z" />
<glyph unicode="G" horiz-adv-x="1564" d="M143 717q0 398 156.5 578t503.5 180q263 0 405 -117t193 -375h-111q-47 207 -161.5 298t-325.5 91q-286 0 -412.5 -153.5t-126.5 -501.5t126.5 -502t412.5 -154q269 0 388.5 146.5t119.5 476.5h-508v92h618v-59q0 -398 -146.5 -578t-471.5 -180q-347 0 -503.5 180 t-156.5 578z" />
<glyph unicode="H" horiz-adv-x="1482" d="M205 0v1434h117v-623h841v623h115v-1434h-115v709h-841v-709h-117z" />
<glyph unicode="I" horiz-adv-x="526" d="M205 0v1434h117v-1434h-117z" />
<glyph unicode="J" horiz-adv-x="1167" d="M147 430v35h111v-35q0 -197 71 -285t232 -88t232 87.5t71 285.5v1004h115v-1004q0 -245 -99.5 -358t-318.5 -113q-217 0 -315.5 113t-98.5 358z" />
<glyph unicode="K" horiz-adv-x="1271" d="M205 0v1434h117v-650l657 650h149l-704 -697l745 -737h-149l-698 690v-690h-117z" />
<glyph unicode="L" horiz-adv-x="1163" d="M209 0v1434h117v-1332h735v-102h-852z" />
<glyph unicode="M" horiz-adv-x="1818" d="M205 0v1434h162l544 -1266l545 1266h158v-1434h-111v1278l-553 -1278h-82l-551 1278v-1278h-112z" />
<glyph unicode="N" horiz-adv-x="1490" d="M205 0v1434h145l826 -1287v1287h110v-1434h-143l-826 1286v-1286h-112z" />
<glyph unicode="O" horiz-adv-x="1605" d="M143 717q0 398 156.5 578t503.5 180t503 -180t156 -578t-156 -578t-503 -180t-503.5 180t-156.5 578zM264 717q0 -348 126.5 -502t412.5 -154t413 154t127 502t-127 501.5t-413 153.5t-412.5 -153.5t-126.5 -501.5z" />
<glyph unicode="P" horiz-adv-x="1359" d="M205 0v1434h557q246 0 360.5 -110t114.5 -331q0 -219 -114.5 -328.5t-360.5 -109.5h-440v-555h-117zM322 651h436q193 0 278.5 81.5t85.5 260.5q0 181 -85 262.5t-279 81.5h-436v-686z" />
<glyph unicode="Q" horiz-adv-x="1605" d="M143 717q0 398 156.5 578t503.5 180q346 0 501.5 -180.5t155.5 -579.5q0 -445 -196 -621l198 -239h-116l-154 188q-147 -84 -389 -84q-347 0 -503.5 180t-156.5 578zM262 715q0 -348 126.5 -502t412.5 -154q195 0 317 70l-346 422h117l301 -367q151 151 151 531 q0 348 -127 501.5t-413 153.5t-412.5 -153.5t-126.5 -501.5z" />
<glyph unicode="R" horiz-adv-x="1417" d="M205 2v1434h594q246 0 360.5 -110t114.5 -331q0 -185 -78 -289.5t-244 -134.5l314 -571h-125l-305 561h-514v-559h-117zM322 651h473q192 0 278 82t86 260q0 181 -85 262.5t-279 81.5h-473v-686z" />
<glyph unicode="S" horiz-adv-x="1318" d="M143 410h107q0 -192 95 -275.5t314 -83.5q218 0 312 74.5t94 243.5q0 71 -31 123t-83 83.5t-119.5 53.5t-142.5 38.5t-149.5 34t-142 44t-119.5 63.5t-83 98.5t-31 143.5q0 223 117 323.5t378 100.5t378.5 -107t117.5 -344h-106q0 190 -91.5 274t-298.5 84 q-206 0 -295.5 -73.5t-89.5 -243.5q0 -66 31 -114.5t83 -77.5t119.5 -50t142.5 -37t150 -34t142.5 -46.5t119.5 -67.5t83 -104t31 -151q0 -223 -122.5 -323.5t-394.5 -100.5q-271 0 -393.5 107t-122.5 344z" />
<glyph unicode="T" horiz-adv-x="1196" d="M82 1331v103h1032v-103h-459v-1331h-114v1331h-459z" />
<glyph unicode="U" horiz-adv-x="1441" d="M184 516v918h117v-918q0 -241 98.5 -348t321.5 -107q224 0 323 106.5t99 348.5v918h114v-918q0 -292 -127 -424.5t-409 -132.5q-281 0 -409 132.5t-128 424.5z" />
<glyph unicode="V" horiz-adv-x="1404" d="M102 1434h117l483 -1346l484 1346h117l-521 -1434h-159z" />
<glyph unicode="W" horiz-adv-x="2064" d="M123 1434h117l378 -1317l345 1317h139l344 -1317l379 1317h117l-420 -1434h-148l-346 1319l-338 -1319h-147z" />
<glyph unicode="X" horiz-adv-x="1343" d="M102 0l496 737l-475 697h131l426 -631l414 631h127l-461 -697l481 -737h-131l-430 670l-451 -670h-127z" />
<glyph unicode="Y" horiz-adv-x="1302" d="M102 1434h129l422 -727l422 727h125l-491 -838v-596h-111v596z" />
<glyph unicode="Z" horiz-adv-x="1302" d="M123 0v76l891 1261h-871v97h1016v-76l-891 -1262h912v-96h-1057z" />
<glyph unicode="[" horiz-adv-x="585" d="M205 -410v1844h319v-93h-225v-1658h225v-93h-319z" />
<glyph unicode="\" horiz-adv-x="714" d="M61 1432l101 2l491 -1434l-102 -2z" />
<glyph unicode="]" horiz-adv-x="587" d="M61 -317h226v1658h-226v93h320l2 -1844h-322v93z" />
<glyph unicode="^" horiz-adv-x="950" d="M102 655l312 717h123l311 -717h-94l-279 641l-278 -641h-95z" />
<glyph unicode="_" horiz-adv-x="1064" d="M0 0h1065v-92h-1065v92z" />
<glyph unicode="`" horiz-adv-x="561" d="M102 1434h117l240 -308h-101z" />
<glyph unicode="a" horiz-adv-x="1075" d="M102 291q0 183 106 265.5t341 82.5h274v57q0 142 -67 198t-221 56q-157 0 -221 -50.5t-64 -182.5h-107q0 172 93.5 249.5t300.5 77.5q205 0 300 -85t95 -273v-686h-92l-11 141q-88 -161 -354 -161q-195 0 -284 74t-89 237zM209 297q0 -123 66 -173t221 -50 q167 0 247 77.5t80 251.5v146h-272q-181 0 -261.5 -58t-80.5 -194z" />
<glyph unicode="b" horiz-adv-x="1175" d="M164 0v1434h108v-572q99 182 367 182q229 0 331.5 -126t102.5 -406t-102.5 -406t-331.5 -126q-275 0 -371 188l-14 -168h-90zM270 502q0 -226 82.5 -327t265.5 -101v-2q183 0 266 103t83 333t-83 335t-266 105t-265.5 -105.5t-82.5 -340.5z" />
<glyph unicode="c" horiz-adv-x="1114" d="M102 512q0 279 113.5 405.5t362.5 126.5q200 0 303 -86t131 -276h-107q-29 141 -107 205.5t-220 64.5q-193 0 -281 -105t-88 -335q0 -231 87.5 -335.5t281.5 -104.5q142 0 220 64.5t107 205.5h107q-28 -190 -131 -276t-303 -86q-249 0 -362.5 126.5t-113.5 405.5z" />
<glyph unicode="d" horiz-adv-x="1175" d="M111 512q0 280 102.5 406t331.5 126q267 0 366 -182v572h109v-1434h-90l-15 168q-96 -188 -370 -188q-229 0 -331.5 126t-102.5 406zM217 510q0 -230 82.5 -333t265.5 -103v-2q183 0 265.5 101t82.5 327q0 236 -82.5 343t-265.5 107t-265.5 -104.5t-82.5 -335.5z" />
<glyph unicode="e" horiz-adv-x="1114" d="M102 512q0 280 108 406t347 126t347 -134t108 -429v-55h-801q12 -188 92.5 -270t253.5 -82q136 0 205.5 48.5t105.5 174.5h103q-38 -167 -136.5 -242t-277.5 -75q-238 0 -346.5 126.5t-108.5 405.5zM209 510h696q0 242 -80.5 340t-267.5 98q-186 0 -267 -101t-81 -337z " />
<glyph unicode="f" horiz-adv-x="827" d="M102 942v82h197v145q0 122 71 193.5t208 71.5h147v-93h-127q-192 0 -192 -172v-145h319v-82h-319v-942h-107v942h-197z" />
<glyph unicode="g" horiz-adv-x="1175" d="M102 512q0 280 103 406t332 126q141 0 232 -46.5t140 -145.5l13 172h90v-922q0 -280 -108.5 -406t-346.5 -126q-186 0 -284.5 75t-129.5 242h103q29 -126 99.5 -176.5t207.5 -50.5q188 0 270 99t82 329v72q-99 -180 -368 -180q-229 0 -332 126t-103 406zM211 512 q0 -234 81 -337t267 -103t267 102.5t81 337.5t-81 337.5t-267 102.5t-267 -102.5t-81 -337.5z" />
<glyph unicode="h" horiz-adv-x="1142" d="M166 0v1434h106v-553q91 163 344 163q198 0 287.5 -116.5t89.5 -374.5v-553h-108v553q0 214 -67 306.5t-222 92.5q-172 0 -247 -92.5t-75 -306.5v-553h-106h-2z" />
<glyph unicode="i" horiz-adv-x="425" d="M123 1341q0 47 21.5 69t68.5 22t68.5 -22t21.5 -69q0 -46 -21.5 -67t-68.5 -21t-68.5 21t-21.5 67zM160 0v1024h108v-1024h-108z" />
<glyph unicode="j" horiz-adv-x="430" d="M-123 -276h86q201 0 201 182v1118h108v-1128q0 -122 -71.5 -193.5t-208.5 -71.5h-115v93zM127 1341q0 47 21.5 69t68.5 22t68.5 -22t21.5 -69q0 -46 -21.5 -67t-68.5 -21q-90 0 -90 88z" />
<glyph unicode="k" horiz-adv-x="1013" d="M164 0v1434h106v-865l500 455h141l-540 -492l581 -532h-141l-541 496v-496h-106z" />
<glyph unicode="l" horiz-adv-x="434" d="M164 0v1434h106v-1434h-106z" />
<glyph unicode="m" horiz-adv-x="1712" d="M168 0v1024h90l12 -164q77 184 314 184q122 0 196.5 -54.5t108.5 -170.5q36 116 118.5 170.5t217.5 54.5q179 0 259.5 -116.5t80.5 -374.5v-553h-109v553q0 64 -4 113t-19 106t-41 93.5t-74 61.5t-114 25q-152 0 -218 -93t-66 -306v-553h-109v553q0 213 -59.5 306 t-194.5 93q-152 0 -216.5 -93t-64.5 -306v-553h-108z" />
<glyph unicode="n" horiz-adv-x="1134" d="M164 0v1024h90l14 -146q92 166 344 166q198 0 287.5 -116.5t89.5 -374.5v-553h-106v553q0 214 -68 306.5t-223 92.5q-80 0 -139 -22.5t-93.5 -58.5t-55 -92t-27.5 -112.5t-7 -131.5v-535h-106z" />
<glyph unicode="o" horiz-adv-x="1155" d="M102 512q0 279 113.5 405.5t362.5 126.5q250 0 362.5 -126t112.5 -406t-112.5 -406t-362.5 -126q-249 0 -362.5 126.5t-113.5 405.5zM209 512q0 -233 87 -335.5t282 -102.5t281.5 102.5t86.5 335.5q0 235 -85.5 336.5t-282.5 101.5t-283 -101.5t-86 -336.5z" />
<glyph unicode="p" horiz-adv-x="1175" d="M164 -410v1434h90l14 -168q96 188 371 188q229 0 331.5 -126t102.5 -406t-102.5 -406t-331.5 -126q-268 0 -367 182v-572h-108zM270 520q0 -235 82.5 -340.5t265.5 -105.5t266 105t83 335t-83 333t-266 103v-2q-183 0 -265.5 -101t-82.5 -327z" />
<glyph unicode="q" horiz-adv-x="1175" d="M111 512q0 280 102.5 406t331.5 126q274 0 370 -188l15 168h90v-1434h-109v572q-99 -182 -366 -182q-229 0 -331.5 126t-102.5 406zM217 512q0 -231 82.5 -335.5t265.5 -104.5t265.5 107t82.5 343q0 226 -82.5 327t-265.5 101v-2q-183 0 -265.5 -103t-82.5 -333z" />
<glyph unicode="r" horiz-adv-x="681" d="M162 0v1024h90l14 -143q73 163 275 163h98v-102h-98q-155 0 -213 -96t-58 -334h-2v-512h-106z" />
<glyph unicode="s" horiz-adv-x="987" d="M102 307h103q0 -132 65.5 -184.5t221.5 -52.5t221 44t65 156q0 52 -22.5 90t-60.5 59t-87.5 36t-104.5 25t-109.5 21.5t-104 30.5t-87.5 46.5t-60.5 74.5t-22.5 111q0 148 88 214t285 66q193 0 280.5 -73t87.5 -234h-98q0 121 -61.5 169t-208.5 48t-209 -39.5t-62 -140.5 q0 -49 22.5 -84t61 -54.5t88.5 -33t105 -23.5t110 -22t105 -32t88.5 -49t61 -78.5t22.5 -116.5q0 -158 -94.5 -229.5t-301.5 -71.5q-203 0 -295 77.5t-92 249.5z" />
<glyph unicode="t" horiz-adv-x="815" d="M102 942v82h164v236h109v-236h317v-82h-317v-668q0 -182 198 -182h119v-92h-147q-137 0 -208 71t-71 193v678h-164z" />
<glyph unicode="u" horiz-adv-x="1134" d="M152 471v553h106v-553q0 -214 68 -306.5t223 -92.5q80 0 139 22.5t93.5 58.5t55 92t27 112.5t6.5 131.5v535h109v-1024h-90l-15 150q-92 -170 -346 -170q-198 0 -287 116.5t-89 374.5z" />
<glyph unicode="v" horiz-adv-x="1069" d="M61 1024h115l361 -940l356 940h115l-398 -1024h-151z" />
<glyph unicode="w" horiz-adv-x="1691" d="M82 1024h108l310 -924l282 924h129l281 -930l309 930h109l-350 -1024h-130l-284 932l-285 -932h-129z" />
<glyph unicode="x" horiz-adv-x="999" d="M61 0l371 532l-350 492h119l299 -430l299 430h119l-349 -492l369 -532h-119l-319 469l-320 -469h-119z" />
<glyph unicode="y" horiz-adv-x="1032" d="M61 1024h107l389 -868l309 868h105l-373 -1036q-67 -187 -145.5 -272t-182.5 -85h-98v82h94q69 0 126.5 71.5t115.5 231.5l4 11z" />
<glyph unicode="z" horiz-adv-x="974" d="M82 0v66l655 870h-635v88h770v-66l-653 -870h674v-88h-811z" />
<glyph unicode="{" horiz-adv-x="729" d="M143 481v82q59 0 85 39t26 127v401q0 160 70 232t227 72h117v-93h-103q-114 0 -165.5 -43.5t-51.5 -138.5v-309q0 -151 -17 -217q-24 -89 -79 -109q28 -9 47.5 -37.5t29 -57.5t14 -77.5t5 -72.5t0.5 -68v-18v-328q0 -95 51.5 -138.5t165.5 -43.5h103v-93h-109 q-160 0 -232.5 73t-72.5 233v415q0 89 -26.5 129.5t-84.5 40.5z" />
<glyph unicode="|" horiz-adv-x="503" d="M205 -410v1844h94v-1844h-94z" />
<glyph unicode="}" horiz-adv-x="729" d="M61 -317h103q114 0 165.5 43.5t51.5 138.5v328q0 143 12 203q22 107 84 128q-28 9 -47.5 37.5t-28.5 58.5t-14 77.5t-5.5 72.5t-0.5 66v14v309q0 95 -51.5 138.5t-165.5 43.5h-103v93h117q157 0 227 -72t70 -232v-401q0 -88 26 -127t85 -39v-82q-58 0 -84.5 -40.5 t-26.5 -129.5v-415q0 -160 -72.5 -233t-232.5 -73h-109v93z" />
<glyph unicode="~" horiz-adv-x="1433" d="M102 489v99q68 61 141.5 87.5t141.5 20.5t139 -29t139.5 -56t136.5 -66t136.5 -55t133 -25t132 26t129.5 95v-97q-68 -63 -141.5 -91t-141.5 -23.5t-139 27t-139.5 55.5t-136.5 66t-136.5 55t-133 26.5t-132 -23.5t-129.5 -92z" />
<glyph unicode="&#xa1;" horiz-adv-x="507" d="M164 936q0 48 21.5 70t68.5 22t68.5 -22t21.5 -70q0 -47 -21.5 -68.5t-68.5 -21.5t-68.5 21.5t-21.5 68.5zM217 -20l16 542h78l17 -542v-390h-111v390z" />
<glyph unicode="&#xa2;" horiz-adv-x="1114" d="M102 514q0 267 103 395t327 138v165h91v-165q177 -9 270 -96t119 -267h-107q-29 141 -107 205.5t-220 64.5q-193 0 -281 -105t-88 -335q0 -231 87.5 -335.5t281.5 -104.5q142 0 220 64.5t107 205.5h107q-26 -180 -119 -266.5t-270 -95.5v-170h-91v170q-224 11 -327 138 t-103 394z" />
<glyph unicode="&#xa3;" horiz-adv-x="1400" d="M143 0v123q128 47 186 138t58 243v184h-244v92h244v244q0 240 101.5 345.5t332.5 105.5q195 0 285 -109.5t90 -341.5h-104q0 194 -67 278t-222 84q-173 0 -240 -88t-67 -274v-244h598v-92h-598v-184q0 -164 -59 -261.5t-189 -146.5h1009v-96h-1114z" />
<glyph unicode="&#xa4;" horiz-adv-x="1232" d="M143 512q0 287 121 414l-96 96l61 65l105 -106q105 63 284 63q180 0 285 -63l105 106l59 -65h-2l-94 -96q119 -125 119 -414t-119 -414l94 -96l-61 -63l-103 104q-105 -63 -285 -63q-179 0 -284 63l-103 -104l-61 63l96 96q-121 127 -121 414zM248 512 q0 -233 86.5 -336.5t281.5 -103.5t282 103.5t87 336.5q0 235 -86 337.5t-283 102.5t-282.5 -102t-85.5 -338z" />
<glyph unicode="&#xa5;" horiz-adv-x="1343" d="M123 1434h129l422 -727l422 727h125l-439 -748h389v-88h-442v-225h442v-88h-442v-285h-111v285h-446v88h446v225h-446v88h393z" />
<glyph unicode="&#xa7;" horiz-adv-x="1345" d="M143 606q0 108 45.5 176t141.5 105q-84 91 -84 221q0 192 97 279.5t312 87.5q221 0 321.5 -107.5t100.5 -343.5h-94q0 193 -75.5 275.5t-252.5 82.5q-164 0 -234.5 -61.5t-70.5 -204.5q0 -64 29 -114t78.5 -83t113.5 -59t134.5 -48t141 -44.5t134.5 -52.5t113.5 -68 t78.5 -96.5t29 -132.5q0 -113 -38.5 -184t-121.5 -109q56 -78 56 -188q0 -203 -103.5 -295.5t-330.5 -92.5q-230 0 -334.5 107.5t-104.5 343.5h94q0 -190 81 -274t264 -84q175 0 250 64.5t75 215.5q0 66 -29 116.5t-78 83t-112.5 57.5t-133.5 45t-140 40.5t-133.5 49 t-112.5 65.5t-78 95t-29 132zM246 616q0 -80 52.5 -134.5t140 -86.5t180.5 -57.5t195.5 -64t164.5 -87.5q64 32 91.5 84t27.5 136q0 76 -47.5 130t-128.5 88t-167.5 60t-188 63t-165.5 80q-83 -31 -119 -80t-36 -131z" />
<glyph unicode="&#xa8;" horiz-adv-x="714" d="M102 1380q0 49 21.5 71t69.5 22q47 0 68.5 -22.5t21.5 -70.5q0 -47 -21.5 -68.5t-68.5 -21.5t-69 21.5t-22 68.5zM430 1380q0 49 21.5 71t68.5 22q92 0 92 -93q0 -47 -22 -68.5t-70 -21.5q-46 0 -68 21.5t-22 68.5z" />
<glyph unicode="&#xa9;" horiz-adv-x="1818" d="M143 717q0 398 182 578t584 180t584 -180t182 -578t-182 -578t-584 -180t-584 180t-182 578zM231 715q0 -354 160 -514t518 -160t518 160t160 516q0 355 -160.5 515.5t-517.5 160.5q-360 0 -519 -159.5t-159 -518.5zM496 717q0 215 98 312t315 97q187 0 281.5 -77.5 t116.5 -249.5h-97q-20 135 -87.5 190t-213.5 55q-173 0 -248 -75.5t-75 -251.5q0 -178 74.5 -253t248.5 -75q145 0 213 55.5t90 190.5h95q-22 -172 -116.5 -250t-281.5 -78q-218 0 -315.5 97t-97.5 313z" />
<glyph unicode="&#xab;" horiz-adv-x="800" d="M102 532l244 390h109l-240 -390l240 -409h-109zM344 532l246 390h108l-241 -390l241 -409h-108z" />
<glyph unicode="&#xac;" horiz-adv-x="1290" d="M102 504v92h1065v-358h-92v266h-973z" />
<glyph unicode="&#xad;" horiz-adv-x="880" d="M102 504v92h676v-92h-676z" />
<glyph unicode="&#xae;" horiz-adv-x="1818" d="M143 717q0 398 182 578t584 180t584 -180t182 -578t-182 -578t-584 -180t-584 180t-182 578zM231 715q0 -357 158.5 -515.5t519.5 -158.5t519.5 158.5t158.5 517.5t-158.5 517.5t-519.5 158.5t-519.5 -159t-158.5 -519zM610 348v737h359q146 0 212 -54.5t66 -174.5 q0 -96 -40.5 -149t-129.5 -72l191 -287h-101l-180 277h-293v-277h-84zM692 700h275q109 0 152.5 34.5t43.5 121.5q0 86 -42.5 117t-153.5 31h-275v-304z" />
<glyph unicode="&#xaf;" horiz-adv-x="901" d="M102 1260v86h697v-86h-697z" />
<glyph unicode="&#xb0;" horiz-adv-x="983" d="M102 1065q0 204 92.5 296.5t297.5 92.5q204 0 296.5 -92.5t92.5 -296.5t-92.5 -296.5t-296.5 -92.5t-297 92.5t-93 296.5zM190 1065q0 -168 67.5 -237.5t234.5 -69.5q166 0 233.5 69.5t67.5 237.5t-67.5 237.5t-233.5 69.5q-167 0 -234.5 -69.5t-67.5 -237.5z" />
<glyph unicode="&#xb1;" horiz-adv-x="1269" d="M102 0v92h1065v-92h-1065zM102 573v93h488v358h90v-358h487v-93h-487v-395h-90v395h-488z" />
<glyph unicode="&#xb4;" horiz-adv-x="561" d="M102 1126l240 308h117l-256 -308h-101z" />
<glyph unicode="&#xb6;" horiz-adv-x="1740" d="M143 1024q0 215 121.5 312.5t390.5 97.5h963v-93h-217v-1751h-96v1751h-605v-1751h-94v1024q-243 0 -353 97.5t-110 312.5z" />
<glyph unicode="&#xb7;" horiz-adv-x="385" d="M102 530q0 93 91 93q47 0 68.5 -22.5t21.5 -70.5t-21.5 -70t-68.5 -22t-69 22.5t-22 69.5z" />
<glyph unicode="&#xb8;" horiz-adv-x="602" d="M102 -449q310 0 310 162q1 36 -24 63t-63.5 39t-72.5 17.5t-64 5.5l62 180h74l-43 -124q9 -1 23.5 -3.5t52.5 -14.5t67 -30t52.5 -53t23.5 -80q0 -108 -101 -166.5t-297 -58.5v63z" />
<glyph unicode="&#xbb;" horiz-adv-x="817" d="M102 123l256 409l-256 390h111l258 -390l-258 -409h-111zM344 123l256 409l-256 390h111l260 -390l-260 -409h-111z" />
<glyph unicode="&#xbf;" horiz-adv-x="1040" d="M102 -61q0 75 21.5 132.5t56.5 93.5t77 66.5t84 60.5t77 64.5t56.5 89t21.5 125.5h94q0 -81 -20.5 -144t-54 -103t-73.5 -72.5t-79.5 -62t-73 -61.5t-54 -79.5t-20.5 -109.5q0 -156 73.5 -226.5t235.5 -70.5q163 0 237.5 90t74.5 288h102q0 -248 -99 -359.5t-319 -111.5 q-219 0 -318.5 93t-99.5 297zM453 936q0 92 90 92q47 0 68.5 -22t21.5 -70q0 -47 -21.5 -68.5t-68.5 -21.5q-46 0 -68 21.5t-22 68.5z" />
<glyph unicode="&#xc0;" d="M102 0l529 1434h155l521 -1434h-121l-137 377h-691l-139 -377h-117zM391 469h623l-309 850zM438 1782h111l225 -246h-98z" />
<glyph unicode="&#xc1;" d="M102 0l529 1434h155l521 -1434h-121l-137 377h-691l-139 -377h-117zM391 469h623l-309 850zM610 1536l221 246h115l-233 -246h-103z" />
<glyph unicode="&#xc2;" d="M102 0l529 1434h155l521 -1434h-121l-137 377h-691l-139 -377h-117zM391 469h623l-309 850zM426 1536l213 246h109l210 -246h-92l-174 182l-174 -182h-92z" />
<glyph unicode="&#xc3;" d="M102 0l529 1434h155l521 -1434h-121l-137 377h-691l-139 -377h-117zM377 1556q0 103 44.5 156t115.5 53q51 0 97.5 -25t76 -54.5t68.5 -54.5t77 -25q90 0 90 135h62q0 -103 -44.5 -156t-115.5 -53q-42 0 -80 16.5t-66 40t-54.5 47t-57.5 40t-62 16.5q-90 0 -90 -136h-61z M391 469h623l-309 850z" />
<glyph unicode="&#xc4;" d="M102 0l529 1434h155l521 -1434h-121l-137 377h-691l-139 -377h-117zM391 469h623l-309 850zM434 1626q0 46 21.5 66t68.5 20q90 0 90 -86q0 -84 -90 -84q-47 0 -68.5 20.5t-21.5 63.5zM770 1626q0 46 21.5 66t68.5 20q92 0 92 -86q0 -84 -92 -84q-90 0 -90 84z" />
<glyph unicode="&#xc5;" d="M102 0l529 1434h155l521 -1434h-121l-137 377h-691l-139 -377h-117zM391 469h623l-309 850zM487 1673q0 101 52 147t166 46t165.5 -46t51.5 -147t-51.5 -147.5t-165.5 -46.5t-166 46.5t-52 147.5zM557 1673q0 -70 34 -99.5t114 -29.5q81 0 114 29t33 100t-33 100t-114 29 q-80 0 -114 -29.5t-34 -99.5z" />
<glyph unicode="&#xc6;" horiz-adv-x="1867" d="M102 0l779 1434h897v-97h-723v-536h641v-96h-641v-609h723v-96h-832v377h-520l-203 -377h-121zM475 469h471v872z" />
<glyph unicode="&#xc7;" horiz-adv-x="1544" d="M143 717q0 397 154 577.5t489 180.5q273 0 417 -118.5t198 -383.5h-115q-54 217 -168 308t-332 91q-275 0 -398.5 -154t-123.5 -501q0 -348 123 -502t399 -154q197 0 311 91t189 309h115q-77 -256 -214.5 -375.5t-367.5 -126.5l-22 -65q9 -1 23.5 -3.5t52.5 -14.5t67 -30 t52.5 -53t23.5 -80q0 -109 -100.5 -167t-297.5 -58v63q312 0 312 162q0 36 -25 63t-63.5 39t-72.5 17.5t-64 5.5l40 121q-314 11 -458 192t-144 566z" />
<glyph unicode="&#xc8;" horiz-adv-x="1261" d="M205 0v1434h934v-97h-817v-536h735v-96h-735v-609h817v-96h-934zM418 1782h110l226 -246h-99z" />
<glyph unicode="&#xc9;" horiz-adv-x="1261" d="M205 0v1434h934v-97h-817v-536h735v-96h-735v-609h817v-96h-934zM590 1536l221 246h115l-234 -246h-102z" />
<glyph unicode="&#xca;" horiz-adv-x="1261" d="M205 0v1434h934v-97h-817v-536h735v-96h-735v-609h817v-96h-934zM406 1536l212 246h107l213 -246h-92l-174 182l-174 -182h-92z" />
<glyph unicode="&#xcb;" horiz-adv-x="1261" d="M205 0v1434h934v-97h-817v-536h735v-96h-735v-609h817v-96h-934zM414 1626q0 46 21.5 66t68.5 20q90 0 90 -86q0 -84 -90 -84q-47 0 -68.5 20.5t-21.5 63.5zM750 1626q0 46 21.5 66t68.5 20q92 0 92 -86q0 -84 -92 -84q-90 0 -90 84z" />
<glyph unicode="&#xcc;" horiz-adv-x="540" d="M20 1782h111l225 -246h-98zM217 0v1434h117v-1434h-117z" />
<glyph unicode="&#xcd;" horiz-adv-x="542" d="M184 1536l222 246h116l-235 -246h-103zM209 0v1434h117v-1434h-117z" />
<glyph unicode="&#xce;" horiz-adv-x="532" d="M0 1536l213 246h109l210 -246h-92l-174 182l-174 -182h-92zM209 0v1434h117v-1434h-117z" />
<glyph unicode="&#xcf;" horiz-adv-x="526" d="M20 1612q0 44 22 64t69 20t68.5 -20.5t21.5 -63.5q0 -44 -21.5 -65t-68.5 -21t-69 21t-22 65zM205 0v1434h117v-1434h-117zM324 1612q0 44 21.5 64t68.5 20q92 0 92 -84q0 -86 -92 -86q-90 0 -90 86z" />
<glyph unicode="&#xd1;" horiz-adv-x="1490" d="M205 0v1434h145l826 -1287v1287h110v-1434h-143l-826 1286v-1286h-112zM430 1556q0 103 44.5 156t115.5 53q51 0 97.5 -25t76 -54.5t68.5 -54.5t77 -25q90 0 90 135h62q0 -103 -44.5 -156t-115.5 -53q-51 0 -97.5 25t-76 55t-68.5 55t-77 25q-90 0 -90 -136h-62z" />
<glyph unicode="&#xd2;" horiz-adv-x="1605" d="M143 717q0 398 156.5 578t503.5 180t503 -180t156 -578t-156 -578t-503 -180t-503.5 180t-156.5 578zM264 717q0 -348 126.5 -502t412.5 -154t413 154t127 502t-127 501.5t-413 153.5t-412.5 -153.5t-126.5 -501.5zM549 1782h110l226 -246h-99z" />
<glyph unicode="&#xd3;" horiz-adv-x="1605" d="M143 717q0 398 156.5 578t503.5 180t503 -180t156 -578t-156 -578t-503 -180t-503.5 180t-156.5 578zM264 717q0 -348 126.5 -502t412.5 -154t413 154t127 502t-127 501.5t-413 153.5t-412.5 -153.5t-126.5 -501.5zM721 1536l221 246h115l-234 -246h-102z" />
<glyph unicode="&#xd4;" horiz-adv-x="1605" d="M143 717q0 398 156.5 578t503.5 180t503 -180t156 -578t-156 -578t-503 -180t-503.5 180t-156.5 578zM264 717q0 -348 126.5 -502t412.5 -154t413 154t127 502t-127 501.5t-413 153.5t-412.5 -153.5t-126.5 -501.5zM537 1536l213 246h106l213 -246h-92l-174 182 l-174 -182h-92z" />
<glyph unicode="&#xd5;" horiz-adv-x="1605" d="M143 717q0 398 156.5 578t503.5 180t503 -180t156 -578t-156 -578t-503 -180t-503.5 180t-156.5 578zM264 717q0 -348 126.5 -502t412.5 -154t413 154t127 502t-127 501.5t-413 153.5t-412.5 -153.5t-126.5 -501.5zM487 1556q0 103 44.5 156t115.5 53q42 0 80 -16.5 t66 -39.5t54.5 -46.5t57.5 -40t62 -16.5q90 0 90 135h61q0 -103 -44.5 -156t-115.5 -53q-51 0 -97.5 25t-76 55t-68.5 55t-77 25q-90 0 -90 -136h-62z" />
<glyph unicode="&#xd6;" horiz-adv-x="1605" d="M143 717q0 397 157 577.5t503 180.5q347 0 503 -180t156 -578t-156 -578t-503 -180t-503.5 180t-156.5 578zM264 717q0 -348 126.5 -502t412.5 -154t413 154t127 502t-127 501.5t-413 153.5t-412.5 -153.5t-126.5 -501.5zM545 1612q0 44 21.5 64t68.5 20q90 0 90 -84 q0 -86 -90 -86q-47 0 -68.5 21t-21.5 65zM881 1612q0 44 21.5 64t68.5 20q92 0 92 -84q0 -86 -92 -86q-90 0 -90 86z" />
<glyph unicode="&#xd7;" horiz-adv-x="1085" d="M102 145l375 375l-375 375l60 66l379 -377l379 379l63 -70l-375 -375l375 -375l-63 -69l-377 379l-377 -377z" />
<glyph unicode="&#xd8;" horiz-adv-x="1603" d="M143 715q0 398 156.5 578t503.5 180q142 0 260 -31l53 153h82l-63 -180q168 -73 246.5 -243.5t78.5 -456.5q0 -398 -156 -578t-503 -180q-91 0 -168 12l-47 -135h-84l53 152q-214 57 -313 233t-99 496zM266 715q0 -276 78.5 -428t249.5 -201l436 1253q-98 31 -225 31 q-286 0 -412.5 -153.5t-126.5 -501.5zM670 70q62 -9 135 -9q286 0 413.5 154t127.5 502q0 239 -58.5 384.5t-183.5 211.5z" />
<glyph unicode="&#xd9;" horiz-adv-x="1441" d="M184 516v918h117v-918q0 -241 98.5 -348t321.5 -107q224 0 323 106.5t99 348.5v918h114v-918q0 -292 -127 -424.5t-409 -132.5q-281 0 -409 132.5t-128 424.5zM467 1782h111l225 -246h-98z" />
<glyph unicode="&#xda;" horiz-adv-x="1441" d="M184 516v918h117v-918q0 -241 98.5 -348t321.5 -107q224 0 323 106.5t99 348.5v918h114v-918q0 -292 -127 -424.5t-409 -132.5q-281 0 -409 132.5t-128 424.5zM639 1536l221 246h115l-234 -246h-102z" />
<glyph unicode="&#xdb;" horiz-adv-x="1441" d="M184 516v918h117v-918q0 -241 98.5 -348t321.5 -107q224 0 323 106.5t99 348.5v918h114v-918q0 -292 -127 -424.5t-409 -132.5q-281 0 -409 132.5t-128 424.5zM455 1536l213 246h108l211 -246h-92l-174 182l-174 -182h-92z" />
<glyph unicode="&#xdc;" horiz-adv-x="1441" d="M184 516v918h117v-918q0 -241 98.5 -348t321.5 -107q224 0 323 106.5t99 348.5v918h114v-918q0 -292 -127 -424.5t-409 -132.5q-281 0 -409 132.5t-128 424.5zM463 1612q0 44 21.5 64t68.5 20q90 0 90 -84q0 -86 -90 -86q-47 0 -68.5 21t-21.5 65zM799 1612q0 44 21.5 64 t68.5 20q92 0 92 -84q0 -86 -92 -86q-90 0 -90 86z" />
<glyph unicode="&#xdd;" horiz-adv-x="1302" d="M102 1434h129l422 -727l422 727h125l-491 -838v-596h-111v596zM557 1536l221 246h117l-236 -246h-102z" />
<glyph unicode="&#xdf;" horiz-adv-x="1181" d="M102 0v1024q0 232 107.5 341.5t335.5 109.5h2q192 0 300.5 -87t108.5 -262q0 -82 -24 -139t-71.5 -91t-108 -50.5t-144.5 -22.5q216 -12 313 -108.5t97 -300.5q0 -215 -94.5 -314.5t-290.5 -99.5q-44 0 -92.5 10t-75.5 20l-27 11v88q111 -37 189 -37q149 0 215.5 78 t66.5 250q0 105 -29 174.5t-89 106.5t-133 51t-179 14v104q203 0 288 58t85 196q0 129 -72 193.5t-231 64.5q-185 0 -262.5 -93t-77.5 -275v-1014h-107z" />
<glyph unicode="&#xe0;" horiz-adv-x="1075" d="M102 291q0 183 106 265.5t341 82.5h274v57q0 142 -67 198t-221 56q-157 0 -221 -50.5t-64 -182.5h-107q0 172 93.5 249.5t300.5 77.5q205 0 300 -85t95 -273v-686h-92l-11 141q-88 -161 -354 -161q-195 0 -284 74t-89 237zM209 297q0 -123 66 -173t221 -50 q167 0 247 77.5t80 251.5v146h-272q-181 0 -261.5 -58t-80.5 -194zM262 1434h117l239 -308h-100z" />
<glyph unicode="&#xe1;" horiz-adv-x="1075" d="M102 291q0 183 106 265.5t341 82.5h274v57q0 142 -67 198t-221 56q-157 0 -221 -50.5t-64 -182.5h-107q0 172 93.5 249.5t300.5 77.5q205 0 300 -85t95 -273v-686h-92l-11 141q-88 -161 -354 -161q-195 0 -284 74t-89 237zM209 297q0 -123 66 -173t221 -50 q167 0 247 77.5t80 251.5v146h-272q-181 0 -261.5 -58t-80.5 -194zM451 1126l239 308h117l-256 -308h-100z" />
<glyph unicode="&#xe2;" horiz-adv-x="1075" d="M102 291q0 183 106 265.5t341 82.5h274v57q0 142 -67 198t-221 56q-157 0 -221 -50.5t-64 -182.5h-107q0 172 93.5 249.5t300.5 77.5q205 0 300 -85t95 -273v-686h-92l-11 141q-88 -161 -354 -161q-195 0 -284 74t-89 237zM209 297q0 -123 66 -173t221 -50 q167 0 247 77.5t80 251.5v146h-272q-181 0 -261.5 -58t-80.5 -194zM287 1126l196 308h109l194 -308h-84l-165 238l-166 -238h-84z" />
<glyph unicode="&#xe3;" horiz-adv-x="1075" d="M102 291q0 183 106 265.5t341 82.5h274v57q0 142 -67 198t-221 56q-157 0 -221 -50.5t-64 -182.5h-107q0 172 93.5 249.5t300.5 77.5q205 0 300 -85t95 -273v-686h-92l-11 141q-88 -161 -354 -161q-195 0 -284 74t-89 237zM209 297q0 -123 66 -173t221 -50 q167 0 247 77.5t80 251.5v146h-272q-181 0 -261.5 -58t-80.5 -194zM221 1174q0 105 45.5 169t114.5 64q42 0 80 -21.5t66.5 -51.5t55 -60.5t55.5 -52t58 -21.5q40 0 65 42.5t25 115.5h66q0 -105 -45.5 -170.5t-114.5 -65.5q-42 0 -80 21.5t-66.5 52t-55 60.5t-55.5 51.5 t-58 21.5q-40 0 -65 -42t-25 -113h-66z" />
<glyph unicode="&#xe4;" horiz-adv-x="1075" d="M102 291q0 183 106 265.5t341 82.5h274v57q0 142 -67 198t-221 56q-157 0 -221 -50.5t-64 -182.5h-107q0 172 93.5 249.5t300.5 77.5q205 0 300 -85t95 -273v-686h-92l-11 141q-88 -161 -354 -161q-195 0 -284 74t-89 237zM209 297q0 -123 66 -173t221 -50 q167 0 247 77.5t80 251.5v146h-272q-181 0 -261.5 -58t-80.5 -194zM283 1270q0 49 21 70.5t69 21.5q90 0 90 -92t-90 -92q-47 0 -68.5 22t-21.5 70zM610 1270q0 49 21 70.5t69 21.5q93 0 93 -92t-93 -92q-90 0 -90 92z" />
<glyph unicode="&#xe5;" horiz-adv-x="1075" d="M102 291q0 183 106 265.5t341 82.5h274v57q0 142 -67 198t-221 56q-157 0 -221 -50.5t-64 -182.5h-107q0 172 93.5 249.5t300.5 77.5q205 0 300 -85t95 -273v-686h-92l-11 141q-88 -161 -354 -161q-195 0 -284 74t-89 237zM209 297q0 -123 66 -173t221 -50 q167 0 247 77.5t80 251.5v146h-272q-181 0 -261.5 -58t-80.5 -194zM319 1264q0 101 52 146.5t166 45.5t165.5 -45.5t51.5 -146.5q0 -102 -51.5 -148.5t-165.5 -46.5t-166 47t-52 148zM389 1264q0 -70 34 -99.5t114 -29.5q81 0 114 29t33 100t-33 100t-114 29 q-80 0 -114 -29.5t-34 -99.5z" />
<glyph unicode="&#xe6;" horiz-adv-x="1839" d="M102 293q0 179 103.5 261.5t331.5 82.5h286v57q0 146 -71 200t-224 54q-154 0 -218 -51.5t-64 -181.5h-103q0 171 91.5 249t291.5 78q162 0 251 -50t120 -158q47 108 140 158t241 50q238 0 346.5 -133.5t108.5 -427.5v-55v-2h-801q12 -188 92.5 -271t253.5 -83 q134 0 203.5 49.5t107.5 175.5h103q-38 -167 -136.5 -242.5t-277.5 -75.5q-162 0 -259 62t-140 194q-29 -133 -127 -194.5t-277 -61.5q-195 0 -284 75t-89 241zM209 305q0 -136 71.5 -185.5t219.5 -49.5q171 0 247 65t76 240v170h-266q-188 0 -268 -54t-80 -186zM930 512 h696q0 243 -79.5 339.5t-266.5 96.5t-268.5 -100t-81.5 -336z" />
<glyph unicode="&#xe7;" horiz-adv-x="1114" d="M102 510q0 279 113.5 405.5t362.5 126.5q200 0 303 -86t131 -276h-107q-29 141 -107 205.5t-220 64.5q-193 0 -281 -105t-88 -335q0 -231 87.5 -335.5t281.5 -104.5q142 0 220 64.5t107 205.5h107q-26 -184 -124 -269.5t-286 -90.5l-31 -86q5 0 12.5 -1.5t30.5 -6.5 t44 -12.5t46 -22t43.5 -32.5t31 -45.5t12.5 -60.5q0 -109 -100.5 -167t-297.5 -58v63q312 0 312 162q0 36 -25 63t-64 39t-73 17.5t-64 5.5l47 139h2q-222 12 -324 139.5t-102 393.5z" />
<glyph unicode="&#xe8;" horiz-adv-x="1114" d="M102 512q0 280 108 406t347 126t347 -134t108 -429v-55h-801q12 -188 92.5 -270t253.5 -82q136 0 205.5 48.5t105.5 174.5h103q-38 -167 -136.5 -242t-277.5 -75q-238 0 -346.5 126.5t-108.5 405.5zM209 510h696q0 242 -80.5 340t-267.5 98q-186 0 -267 -101t-81 -337z M283 1432h116l240 -308h-100z" />
<glyph unicode="&#xe9;" horiz-adv-x="1114" d="M102 512q0 280 108 406t347 126t347 -134t108 -429v-55h-801q12 -188 92.5 -270t253.5 -82q136 0 205.5 48.5t105.5 174.5h103q-38 -167 -136.5 -242t-277.5 -75q-238 0 -346.5 126.5t-108.5 405.5zM209 510h696q0 242 -80.5 340t-267.5 98q-186 0 -267 -101t-81 -337z M475 1124l240 308h116l-256 -308h-100z" />
<glyph unicode="&#xea;" horiz-adv-x="1114" d="M102 512q0 280 108 406t347 126t347 -134t108 -429v-55h-801q12 -188 92.5 -270t253.5 -82q136 0 205.5 48.5t105.5 174.5h103q-38 -167 -136.5 -242t-277.5 -75q-238 0 -346.5 126.5t-108.5 405.5zM209 510h696q0 242 -80.5 340t-267.5 98q-186 0 -267 -101t-81 -337z M307 1124l197 308h108l195 -308h-84l-166 238l-166 -238h-84z" />
<glyph unicode="&#xeb;" horiz-adv-x="1114" d="M102 512q0 280 108 406t347 126t347 -134t108 -429v-55h-801q12 -188 92.5 -270t253.5 -82q136 0 205.5 48.5t105.5 174.5h103q-38 -167 -136.5 -242t-277.5 -75q-238 0 -346.5 126.5t-108.5 405.5zM209 510h696q0 242 -80.5 340t-267.5 98q-186 0 -267 -101t-81 -337z M303 1268q0 49 21 70.5t69 21.5q90 0 90 -92t-90 -92q-47 0 -68.5 22t-21.5 70zM631 1268q0 49 21 70.5t69 21.5q92 0 92 -92t-92 -92q-90 0 -90 92z" />
<glyph unicode="&#xec;" horiz-adv-x="425" d="M-61 1434h116l240 -308h-100zM160 0v1024h106v-1024h-106z" />
<glyph unicode="&#xed;" horiz-adv-x="423" d="M129 1126l240 308h116l-256 -308h-100zM162 0v1024h106v-1024h-106z" />
<glyph unicode="&#xee;" horiz-adv-x="417" d="M-41 1126l197 308h108l195 -308h-84l-166 238l-166 -238h-84zM156 0v1024h106v-1024h-106z" />
<glyph unicode="&#xef;" horiz-adv-x="436" d="M-20 1223q0 48 21.5 70t68.5 22q90 0 90 -92q0 -93 -90 -93q-47 0 -68.5 22.5t-21.5 70.5zM164 0v1024h106v-1024h-106zM274 1223q0 47 22 69.5t69 22.5q92 0 92 -92q0 -93 -92 -93q-91 0 -91 93z" />
<glyph unicode="&#xf1;" horiz-adv-x="1134" d="M164 0v1024h90l14 -146q92 166 344 166q198 0 287.5 -116.5t89.5 -374.5v-553h-106v553q0 214 -68 306.5t-223 92.5q-80 0 -139 -22.5t-93.5 -58.5t-55 -92t-27.5 -112.5t-7 -131.5v-535h-106zM262 1174q0 105 45.5 169t114.5 64q42 0 80 -21.5t66.5 -51.5t55 -60.5 t55.5 -52t58 -21.5q40 0 65 42.5t25 115.5h66q0 -105 -45.5 -170.5t-114.5 -65.5q-42 0 -80 21.5t-66.5 52t-55 60.5t-55.5 51.5t-58 21.5q-40 0 -65 -42t-25 -113h-66z" />
<glyph unicode="&#xf2;" horiz-adv-x="1155" d="M102 512q0 279 113.5 405.5t362.5 126.5q250 0 362.5 -126t112.5 -406t-112.5 -406t-362.5 -126q-249 0 -362.5 126.5t-113.5 405.5zM209 512q0 -233 87 -336.5t282 -103.5t281.5 103.5t86.5 336.5q0 235 -86 337.5t-282 102.5q-197 0 -283 -102t-86 -338zM303 1434h117 l239 -308h-100z" />
<glyph unicode="&#xf3;" horiz-adv-x="1155" d="M102 512q0 279 113.5 405.5t362.5 126.5q250 0 362.5 -126t112.5 -406t-112.5 -406t-362.5 -126q-249 0 -362.5 126.5t-113.5 405.5zM209 512q0 -233 87 -336.5t282 -103.5t281.5 103.5t86.5 336.5q0 235 -86 337.5t-282 102.5q-197 0 -283 -102t-86 -338zM496 1126 l239 308h117l-256 -308h-100z" />
<glyph unicode="&#xf4;" horiz-adv-x="1155" d="M102 512q0 279 113.5 405.5t362.5 126.5q250 0 362.5 -126t112.5 -406t-112.5 -406t-362.5 -126q-249 0 -362.5 126.5t-113.5 405.5zM209 512q0 -233 87 -336.5t282 -103.5t281.5 103.5t86.5 336.5q0 235 -86 337.5t-282 102.5q-197 0 -283 -102t-86 -338zM328 1126 l196 308h109l194 -308h-84l-165 238l-166 -238h-84z" />
<glyph unicode="&#xf5;" horiz-adv-x="1155" d="M102 512q0 279 113.5 405.5t362.5 126.5q250 0 362.5 -126t112.5 -406t-112.5 -406t-362.5 -126q-249 0 -362.5 126.5t-113.5 405.5zM209 512q0 -233 87 -336.5t282 -103.5t281.5 103.5t86.5 336.5q0 235 -86 337.5t-282 102.5q-197 0 -283 -102t-86 -338zM262 1174 q0 105 45.5 169t114.5 64q42 0 80 -21.5t66.5 -51.5t55 -60.5t55.5 -52t58 -21.5q40 0 65 42.5t25 115.5h66q0 -105 -45.5 -170.5t-114.5 -65.5q-42 0 -80 21.5t-66.5 52t-55 60.5t-55.5 51.5t-58 21.5q-40 0 -65 -42t-25 -113h-66z" />
<glyph unicode="&#xf6;" horiz-adv-x="1155" d="M102 512q0 279 113.5 405.5t362.5 126.5q250 0 362.5 -126t112.5 -406t-112.5 -406t-362.5 -126q-249 0 -362.5 126.5t-113.5 405.5zM209 512q0 -233 87 -336.5t282 -103.5t281.5 103.5t86.5 336.5q0 235 -86 337.5t-282 102.5q-197 0 -283 -102t-86 -338zM324 1270 q0 49 21 70.5t69 21.5q90 0 90 -92t-90 -92q-47 0 -68.5 22t-21.5 70zM651 1270q0 49 21 70.5t69 21.5q93 0 93 -92t-93 -92q-90 0 -90 92z" />
<glyph unicode="&#xf7;" horiz-adv-x="1269" d="M102 489v93h1065v-93h-1065zM532 98q0 43 29 73t74 30t73.5 -29.5t28.5 -73.5q0 -43 -28.5 -72.5t-73.5 -29.5q-46 0 -74.5 29t-28.5 73zM532 971q0 44 29 74t74 30t73.5 -30t28.5 -74t-28.5 -73.5t-73.5 -29.5t-74 30.5t-29 72.5z" />
<glyph unicode="&#xf8;" horiz-adv-x="1157" d="M102 512q0 279 114 405.5t364 126.5q78 0 143 -12l47 135h68l-52 -151q139 -44 204 -166.5t65 -337.5q0 -280 -112.5 -406t-362.5 -126q-80 0 -144 12l-47 -135h-67l51 151q-139 46 -205 168.5t-66 335.5zM211 514q0 -174 46 -274.5t146 -139.5l289 844q-58 10 -112 10 q-197 0 -283 -102t-86 -338zM467 84q58 -10 113 -10q195 0 281.5 103.5t86.5 336.5q0 175 -46 274.5t-146 137.5z" />
<glyph unicode="&#xf9;" horiz-adv-x="1134" d="M152 471v553h106v-553q0 -214 68 -306.5t223 -92.5q80 0 139 22.5t93.5 58.5t55 92t27 112.5t6.5 131.5v535h109v-1024h-90l-15 150q-92 -170 -346 -170q-198 0 -287 116.5t-89 374.5zM307 1434h117l240 -308h-101z" />
<glyph unicode="&#xfa;" horiz-adv-x="1134" d="M152 471v553h106v-553q0 -214 68 -306.5t223 -92.5q80 0 139 22.5t93.5 58.5t55 92t27 112.5t6.5 131.5v535h109v-1024h-90l-15 150q-92 -170 -346 -170q-198 0 -287 116.5t-89 374.5zM418 1126l239 308h117l-256 -308h-100z" />
<glyph unicode="&#xfb;" horiz-adv-x="1134" d="M152 471v553h106v-553q0 -214 68 -306.5t223 -92.5q80 0 139 22.5t93.5 58.5t55 92t27 112.5t6.5 131.5v535h109v-1024h-90l-15 150q-92 -170 -346 -170q-198 0 -287 116.5t-89 374.5zM311 1126l197 308h108l195 -308h-84l-166 238l-166 -238h-84z" />
<glyph unicode="&#xfc;" horiz-adv-x="1134" d="M152 471v553h106v-553q0 -214 68 -306.5t223 -92.5q80 0 139 22.5t93.5 58.5t55 92t27 112.5t6.5 131.5v535h109v-1024h-90l-15 150q-92 -170 -346 -170q-198 0 -287 116.5t-89 374.5zM299 1270q0 49 21 70.5t69 21.5q90 0 90 -92t-90 -92q-47 0 -68.5 22t-21.5 70z M627 1270q0 49 21 70.5t69 21.5q92 0 92 -92t-92 -92q-90 0 -90 92z" />
<glyph unicode="&#xfd;" horiz-adv-x="1032" d="M61 1024h107l389 -868l309 868h105l-373 -1036q-67 -187 -145.5 -272t-182.5 -85h-98v82h94q69 0 126.5 71.5t115.5 231.5l4 11zM442 1126l240 308h117l-256 -308h-101z" />
<glyph unicode="&#xff;" horiz-adv-x="1032" d="M61 1024h107l389 -868l309 868h105l-373 -1036q-67 -187 -145.5 -272t-182.5 -85h-98v82h94q69 0 126.5 71.5t115.5 231.5l4 11zM266 1270q0 49 21 70.5t69 21.5q47 0 68.5 -22t21.5 -70t-21.5 -70t-68.5 -22t-68.5 22t-21.5 70zM594 1270q0 49 21 70.5t69 21.5 q92 0 92 -92t-92 -92q-90 0 -90 92z" />
<glyph unicode="&#x152;" horiz-adv-x="2392" d="M143 715q0 398 154.5 578t497.5 180q220 0 356.5 -80.5t200.5 -251.5v293h917v-97h-811v-536h729v-96h-729v-609h811v-96h-917v291q-36 -96 -95.5 -163t-138 -102.5t-163.5 -51t-189 -15.5q-325 0 -474 182.5t-149 573.5zM264 717q0 -348 126.5 -502t412.5 -154t413 154 t127 502t-127 501.5t-413 153.5t-412.5 -153.5t-126.5 -501.5z" />
<glyph unicode="&#x153;" horiz-adv-x="1949" d="M102 510q0 279 113.5 405.5t362.5 126.5q168 0 269 -55.5t148 -173.5q92 229 398 229q231 0 342.5 -138t111.5 -425v-53v-2h-805q14 -182 95.5 -268t255.5 -86q133 0 203.5 49.5t105.5 173.5h104q-38 -161 -139.5 -239.5t-273.5 -78.5q-304 0 -398 232 q-47 -118 -148.5 -174t-268.5 -56q-249 0 -362.5 126.5t-113.5 406.5zM209 508q0 -233 87 -335.5t282 -102.5t281.5 102.5t86.5 335.5q0 235 -85.5 336.5t-282.5 101.5t-283 -101.5t-86 -336.5zM1040 508h697q0 240 -81 339t-265 99q-190 0 -270.5 -104.5t-80.5 -333.5z" />
<glyph unicode="&#x178;" horiz-adv-x="1302" d="M102 1434h129l422 -727l422 727h125l-491 -838v-596h-111v596zM381 1612q0 44 21.5 64t68.5 20t68.5 -20.5t21.5 -63.5q0 -44 -21.5 -65t-68.5 -21t-68.5 21t-21.5 65zM717 1612q0 44 21.5 64t68.5 20q92 0 92 -84q0 -86 -92 -86q-90 0 -90 86z" />
<glyph unicode="&#x2c6;" horiz-adv-x="704" d="M102 1126l197 308h109l194 -308h-84l-166 238l-166 -238h-84z" />
<glyph unicode="&#x2dc;" horiz-adv-x="835" d="M102 1229q0 105 45.5 170t114.5 65q42 0 80.5 -21.5t67 -52t54.5 -60.5t55.5 -51.5t58.5 -21.5q40 0 65 42t25 114h65q0 -105 -45.5 -170t-114.5 -65q-42 0 -80 21t-66.5 51.5t-55 61t-55.5 51.5t-58 21q-40 0 -65 -41.5t-25 -113.5h-66z" />
<glyph unicode="&#x2000;" horiz-adv-x="933" />
<glyph unicode="&#x2001;" horiz-adv-x="1866" />
<glyph unicode="&#x2002;" horiz-adv-x="933" />
<glyph unicode="&#x2003;" horiz-adv-x="1866" />
<glyph unicode="&#x2004;" horiz-adv-x="622" />
<glyph unicode="&#x2005;" horiz-adv-x="466" />
<glyph unicode="&#x2006;" horiz-adv-x="311" />
<glyph unicode="&#x2007;" horiz-adv-x="311" />
<glyph unicode="&#x2008;" horiz-adv-x="233" />
<glyph unicode="&#x2009;" horiz-adv-x="373" />
<glyph unicode="&#x200a;" horiz-adv-x="103" />
<glyph unicode="&#x2010;" horiz-adv-x="880" d="M102 504v92h676v-92h-676z" />
<glyph unicode="&#x2011;" horiz-adv-x="880" d="M102 504v92h676v-92h-676z" />
<glyph unicode="&#x2012;" horiz-adv-x="880" d="M102 504v92h676v-92h-676z" />
<glyph unicode="&#x2013;" horiz-adv-x="1269" d="M102 504v92h1065v-92h-1065z" />
<glyph unicode="&#x2014;" horiz-adv-x="1720" d="M102 504v92h1516v-92h-1516z" />
<glyph unicode="&#x2018;" horiz-adv-x="385" d="M111 1192q0 124 38.5 183t120.5 59v-66q-41 0 -59 -37.5t-18 -122.5q53 0 75.5 -20.5t22.5 -69.5q0 -94 -86 -94q-49 0 -71.5 40t-22.5 128z" />
<glyph unicode="&#x2019;" horiz-adv-x="385" d="M102 1360q0 94 86 94q50 0 72.5 -40t22.5 -128q0 -124 -39 -183t-121 -59v66q41 0 59.5 37.5t18.5 122.5q-53 0 -76 20.5t-23 69.5z" />
<glyph unicode="&#x201a;" horiz-adv-x="385" d="M102 70q0 94 86 94q50 0 72.5 -40t22.5 -128q0 -124 -39 -183t-121 -59v66q41 0 59.5 37.5t18.5 122.5q-53 0 -76 20.5t-23 69.5z" />
<glyph unicode="&#x201c;" horiz-adv-x="673" d="M111 1192q0 124 38.5 183t120.5 59v-66q-41 0 -59 -37.5t-18 -122.5q53 0 75.5 -20.5t22.5 -69.5q0 -94 -86 -94q-49 0 -71.5 40t-22.5 128zM399 1192q0 124 39 183t121 59v-66q-41 0 -59.5 -37.5t-18.5 -122.5q53 0 76 -20.5t23 -69.5q0 -94 -86 -94q-50 0 -72.5 40 t-22.5 128z" />
<glyph unicode="&#x201d;" horiz-adv-x="677" d="M102 1360q0 94 86 94q50 0 72.5 -40t22.5 -128q0 -124 -39 -183t-121 -59v66q41 0 59.5 37.5t18.5 122.5q-53 0 -76 20.5t-23 69.5zM395 1360q0 94 86 94q49 0 71.5 -40t22.5 -128q0 -124 -38.5 -183t-120.5 -59v66q41 0 59.5 37.5t18.5 122.5q-53 0 -76 20.5t-23 69.5z " />
<glyph unicode="&#x201e;" horiz-adv-x="673" d="M102 70q0 94 86 94q50 0 72.5 -40t22.5 -128q0 -124 -39 -183t-121 -59v66q41 0 59.5 37.5t18.5 122.5q-53 0 -76 20.5t-23 69.5zM391 70q0 94 86 94q49 0 71.5 -40t22.5 -128q0 -124 -38.5 -183t-120.5 -59v66q41 0 59 37.5t18 122.5q-53 0 -75.5 20.5t-22.5 69.5z" />
<glyph unicode="&#x2026;" horiz-adv-x="1003" d="M102 86q0 49 21.5 70.5t69.5 21.5q47 0 68.5 -22t21.5 -70q0 -46 -21.5 -68t-68.5 -22t-69 21.5t-22 68.5zM412 86q0 49 21 70.5t69 21.5q47 0 68.5 -22t21.5 -70q0 -90 -90 -90q-47 0 -68.5 21.5t-21.5 68.5zM719 86q0 49 22 70.5t70 21.5q90 0 90 -92q0 -90 -90 -90 q-48 0 -70 21.5t-22 68.5z" />
<glyph unicode="&#x202f;" horiz-adv-x="373" />
<glyph unicode="&#x2039;" horiz-adv-x="559" d="M102 532l246 390h109l-242 -390l242 -409h-109z" />
<glyph unicode="&#x203a;" horiz-adv-x="559" d="M102 123l240 409l-240 390h109l246 -390l-246 -409h-109z" />
<glyph unicode="&#x205f;" horiz-adv-x="466" />
<glyph unicode="&#x20ac;" horiz-adv-x="1843" d="M115 553v84h198q-2 29 -2 78q0 61 2 94h-198v84h207q35 301 204 440.5t494 139.5q323 0 483 -126t197 -407h-117q-32 230 -162.5 330t-400.5 100q-268 0 -408 -113.5t-172 -363.5h719v-84h-725q-4 -66 -4 -94q0 -49 2 -76h645v-84h-639q29 -259 169.5 -376.5 t412.5 -117.5q254 0 383.5 100t179.5 331v-3h117q-57 -281 -217 -406.5t-463 -125.5q-330 0 -499.5 142.5t-201.5 453.5h-204z" />
<glyph unicode="&#x2122;" horiz-adv-x="2445" d="M82 1337v97h905v-97h-401v-927h-103v927h-401zM1208 410v1024h144l374 -895l375 895h140v-1024h-103v880l-373 -880h-82l-372 880v-880h-103z" />
<glyph unicode="&#x25fc;" horiz-adv-x="1024" d="M0 0v1024h1024v-1024h-1024z" />
</font>
</defs>
</svg>
